<?xml version="1.0" encoding="utf-8"?>
<svg viewBox="0 0 500 500" xmlns="http://www.w3.org/2000/svg">
  <path d="M 202.262 325.686 C 200.66 325.686 199.047 325.135 197.731 324.014 L 152.434 285.444 C 150.871 284.112 149.973 282.167 149.973 280.112 C 149.973 278.061 150.875 276.116 152.434 274.784 L 197.731 236.214 C 200.672 233.706 205.09 234.061 207.598 237.003 C 210.102 239.948 209.75 244.366 206.805 246.87 L 167.77 280.112 L 206.805 313.354 C 209.75 315.862 210.102 320.28 207.598 323.221 C 206.211 324.85 204.242 325.686 202.262 325.686 Z M 202.262 325.686" style="fill: rgb(246, 246, 246);"/>
  <path d="M 291.684 325.686 C 289.703 325.686 287.735 324.85 286.352 323.221 C 283.844 320.28 284.2 315.862 287.141 313.354 L 326.176 280.112 L 287.141 246.87 C 284.2 244.366 283.844 239.948 286.352 237.003 C 288.856 234.061 293.278 233.706 296.215 236.214 L 341.512 274.784 C 343.075 276.116 343.973 278.061 343.973 280.112 C 343.973 282.167 343.075 284.112 341.512 285.444 L 296.215 324.014 C 294.899 325.135 293.285 325.686 291.684 325.686 Z M 291.684 325.686" style="fill: rgb(246, 246, 246);"/>
  <path d="M 230.938 354.616 C 230.457 354.616 229.973 354.565 229.485 354.464 C 225.703 353.667 223.282 349.952 224.078 346.171 L 252.309 212.135 C 253.106 208.354 256.817 205.932 260.602 206.729 C 264.383 207.526 266.805 211.237 266.008 215.022 L 237.778 349.057 C 237.082 352.354 234.176 354.616 230.938 354.616 Z M 230.938 354.616" style="fill: rgb(246, 246, 246);"/>
  <path d="M 411.973 427.639 L 81.973 427.639 C 56.059 427.639 34.973 406.557 34.973 380.639 L 34.973 100.553 C 34.973 74.639 56.059 53.553 81.973 53.553 L 411.973 53.553 C 437.887 53.553 458.973 74.639 458.973 100.553 L 458.973 380.639 C 458.973 406.557 437.887 427.639 411.973 427.639 Z M 81.973 67.553 C 63.778 67.553 48.973 82.358 48.973 100.553 L 48.973 380.639 C 48.973 398.835 63.778 413.639 81.973 413.639 L 411.973 413.639 C 430.168 413.639 444.973 398.835 444.973 380.639 L 444.973 100.553 C 444.973 82.358 430.168 67.553 411.973 67.553 Z M 81.973 67.553" style="fill: rgb(246, 246, 246);"/>
  <path d="M 451.973 165.643 L 41.973 165.643 C 38.106 165.643 34.973 162.51 34.973 158.643 C 34.973 154.78 38.106 151.643 41.973 151.643 L 451.973 151.643 C 455.84 151.643 458.973 154.78 458.973 158.643 C 458.973 162.51 455.84 165.643 451.973 165.643 Z M 451.973 165.643" style="fill: rgb(246, 246, 246);"/>
  <path d="M 154.575 132.147 C 142.364 132.147 132.422 122.206 132.422 109.995 C 132.422 97.78 142.364 87.842 154.575 87.842 C 166.789 87.842 176.727 97.78 176.727 109.995 C 176.727 122.206 166.789 132.147 154.575 132.147 Z M 154.575 101.842 C 150.082 101.842 146.422 105.499 146.422 109.995 C 146.422 114.491 150.082 118.147 154.575 118.147 C 159.071 118.147 162.727 114.491 162.727 109.995 C 162.727 105.499 159.071 101.842 154.575 101.842 Z M 154.575 101.842" style="fill: rgb(246, 246, 246);"/>
  <path d="M 86.512 131.932 C 74.297 131.932 64.36 121.995 64.36 109.78 C 64.36 97.565 74.297 87.628 86.512 87.628 C 98.727 87.628 108.664 97.565 108.664 109.78 C 108.664 121.995 98.727 131.932 86.512 131.932 Z M 86.512 101.628 C 82.02 101.628 78.36 105.288 78.36 109.78 C 78.36 114.276 82.02 117.932 86.512 117.932 C 91.008 117.932 94.664 114.276 94.664 109.78 C 94.664 105.288 91.008 101.628 86.512 101.628 Z M 86.512 101.628" style="fill: rgb(246, 246, 246);"/>
  <path d="M 222.637 132.358 C 210.426 132.358 200.489 122.421 200.489 110.206 C 200.489 97.995 210.426 88.057 222.637 88.057 C 234.852 88.057 244.789 97.995 244.789 110.206 C 244.789 122.421 234.852 132.358 222.637 132.358 Z M 222.637 102.053 C 218.145 102.053 214.489 105.71 214.489 110.206 C 214.489 114.702 218.145 118.358 222.637 118.358 C 227.133 118.358 230.789 114.702 230.789 110.206 C 230.789 105.71 227.133 102.053 222.637 102.053 Z M 222.637 102.053" style="fill: rgb(246, 246, 246);"/>
</svg>