<?xml version="1.0" encoding="utf-8"?>
<svg viewBox="0 0 500 500" xmlns="http://www.w3.org/2000/svg">
  <g transform="matrix(0.946529, 0, 0, 0.968925, 5.180272, 0.180352)" style="">
    <g>
      <path d="m10 161.225h130v328.693h-130z" style="fill: rgb(255, 195, 195);"/>
      <circle cx="75" cy="337.891" r="25" style="fill: rgb(255, 195, 195);"/>
      <path d="m55 213.544h40v59.347h-40z" style="fill: rgb(255, 195, 195);"/>
      <path d="m55 402.891h40v59.347h-40z" style="fill: rgb(255, 195, 195);"/>
      <path d="m264.637 53.143c41.602 72.056 83.203 144.112 124.805 216.169-14.447 8.31-28.895 16.62-43.342 24.93-41.588-72.033-83.176-144.066-124.764-216.099 14.434-8.333 28.868-16.667 43.301-25z" style="fill: rgb(255, 195, 195);"/>
      <path d="m216.505 29.775 8.66-5c9.566-5.523 21.798-2.245 27.32 7.321l12.152 21.048-43.301 25-12.152-21.048c-5.522-9.566-2.245-21.798 7.321-27.321z" style="fill: rgb(255, 195, 195);"/>
      <path d="m405.098 346.428-15.696-77.187-43.302 25.001z" style="fill: rgb(255, 195, 195);"/>
    </g>
    <g>
      <path d="m75 372.891c19.299 0 35-15.701 35-35s-15.701-35-35-35-35 15.701-35 35 15.701 35 35 35zm0-50c8.271 0 15 6.729 15 15s-6.729 15-15 15-15-6.729-15-15 6.729-15 15-15z" style="fill: rgb(246, 246, 246);"/>
      <path d="m55 282.891h40c5.523 0 10-4.477 10-10v-59.347c0-5.523-4.477-10-10-10h-40c-5.523 0-10 4.477-10 10v59.347c0 5.523 4.477 10 10 10zm10-59.347h20v39.347h-20z" style="fill: rgb(246, 246, 246);"/>
      <path d="m95 392.891h-40c-5.523 0-10 4.477-10 10v59.347c0 5.523 4.477 10 10 10h40c5.523 0 10-4.477 10-10v-59.347c0-5.523-4.477-10-10-10zm-10 59.346h-20v-39.347h20z" style="fill: rgb(246, 246, 246);"/>
      <path d="m462 399.917c-5.523 0-10 4.477-10 10v30h-30c-5.523 0-10 4.477-10 10s4.477 10 10 10h40c5.523 0 10-4.477 10-10v-40c0-5.523-4.477-10-10-10z" style="fill: rgb(246, 246, 246);"/>
      <path d="m180 399.917c-5.523 0-10 4.477-10 10v40c0 5.523 4.477 10 10 10h40c5.523 0 10-4.477 10-10s-4.477-10-10-10h-30v-30c0-5.523-4.477-10-10-10z" style="fill: rgb(246, 246, 246);"/>
      <path d="m220 191.227h-40c-5.523 0-10 4.477-10 10v40c0 5.523 4.477 10 10 10s10-4.477 10-10v-30h30c5.523 0 10-4.477 10-10s-4.477-10-10-10z" style="fill: rgb(246, 246, 246);"/>
      <path d="m422 211.227h30v30c0 5.523 4.477 10 10 10s10-4.477 10-10v-40c0-5.523-4.477-10-10-10h-40c-5.523 0-10 4.477-10 10s4.477 10 10 10z" style="fill: rgb(246, 246, 246);"/>
      <path d="m502 151.228h-40c-5.523 0-10 4.477-10 10s4.477 10 10 10h30v308.69h-342v-308.69h113.531l73.949 128.084c.67 1.071 1.492 2.077 2.486 2.855l58.506 51.752c1.874 1.657 4.241 2.51 6.627 2.51 1.716 0 3.441-.44 4.998-1.34 3.724-2.15 5.656-6.439 4.799-10.653l-15.535-76.395c-.156-1.28-.615-2.573-1.26-3.729l-53.742-93.084h37.641c5.523 0 10-4.477 10-10s-4.477-10-10-10h-49.186l-59.516-103.085c-.001-.002-.003-.005-.005-.007l-12.147-21.041c-4.007-6.94-10.476-11.904-18.216-13.977-7.739-2.075-15.824-1.01-22.765 2.997l-8.66 5c-14.326 8.271-19.251 26.655-10.98 40.98l12.151 21.048 39.309 68.084h-241.985c-5.523 0-10 4.477-10 10v328.69c0 5.523 4.477 10 10 10h492c5.523 0 10-4.477 10-10v-328.69c0-5.522-4.477-9.999-10-9.999zm-241.023-84.425 114.764 198.778-25.981 15-71.64-124.084c-.027-.05-.057-.098-.085-.148l-43.039-74.545zm102.155 229.153 19.239-11.108 6.974 34.294zm-132.967-262.521c4.778-2.756 10.904-1.115 13.661 3.66l7.151 12.388-25.98 15-7.152-12.388c-2.757-4.775-1.115-10.903 3.66-13.66zm-210.165 137.793h110v308.69h-110z" style="fill: rgb(246, 246, 246);"/>
      <circle cx="422" cy="161.227" r="10" style="fill: rgb(246, 246, 246);"/>
    </g>
  </g>
</svg>