<?xml version="1.0" encoding="utf-8"?>
<svg height="512pt" viewBox="-56 0 512 512.00033" width="512pt" xmlns="http://www.w3.org/2000/svg">
  <path d="m280.601562 394.605469c-4.140624 0-7.5 3.359375-7.5 7.503906v12.449219c0 4.144531 3.359376 7.503906 7.5 7.503906 4.144532 0 7.503907-3.359375 7.503907-7.503906v-12.449219c0-4.144531-3.359375-7.503906-7.503907-7.503906zm0 0" style="fill: rgb(246, 246, 246);"/>
  <path d="m119.273438 394.605469c-4.144532 0-7.503907 3.359375-7.503907 7.503906v12.449219c0 4.144531 3.359375 7.503906 7.503907 7.503906 4.140624 0 7.5-3.359375 7.5-7.503906v-12.449219c0-4.144531-3.359376-7.503906-7.5-7.503906zm0 0" style="fill: rgb(246, 246, 246);"/>
  <path d="m355.792969 222.855469h-148.355469v-18.105469c0-65.769531 52.289062-95.433594 52.289062-95.433594-2.074218 9.417969-.640624 19 4.359376 28.269532 6.542968 12.128906 16.34375 20.546874 27.71875 23.195312 11.585937 2.695312 25.816406-1.070312 36.542968-8.210938h.003906c12.675782-8.441406 54.378907-40.136718 58.890626-93.644531 1.570312-18.628906-8.03125-36.433593-24.464844-45.355469-47.183594-25.625-96.582032-8.183593-110.597656-2.230468-17.296876 7.351562-24.195313 18.210937-26.933594 26.027344-3.863282 11.019531-2.386719 23.769531 4.152344 35.902343 5.769531 10.695313 14.566406 17.636719 25.734374 20.476563 0 0-41.285156 23.933594-55.195312 67.984375-14.914062-43.664063-55.195312-67.984375-55.195312-67.984375 11.167968-2.839844 19.964843-9.78125 25.734374-20.476563 6.539063-12.132812 8.015626-24.882812 4.152344-35.902343-2.738281-7.816407-9.632812-18.675782-26.933594-26.027344-14.015624-5.953125-63.410156-23.390625-110.601562 2.230468-16.429688 8.921876-26.03125 26.726563-24.460938 45.355469 4.511719 53.507813 46.214844 85.203125 58.890626 93.644531h.003906c10.726562 7.140626 25.671875 10.296876 36.542968 8.210938 11.46875-2.207031 21.171876-11.066406 27.714844-23.195312 5.003906-9.269532 6.4375-18.851563 4.359375-28.269532 0 0 52.292969 29.605469 52.292969 95.433594v18.105469h-148.355469c-24.308593 0-44.082031 19.773437-44.082031 44.082031 0 24.304688 19.773438 44.078125 44.082031 44.078125h1.261719v133.226563c0 37.363281 30.394531 67.757812 67.757812 67.757812h173.667969c37.363281 0 67.757813-30.394531 67.757813-67.757812v-133.222657h1.265625c24.304687 0 44.078125-19.777343 44.078125-44.082031.003906-24.304688-19.769532-44.082031-44.078125-44.082031zm-35.757813-82.769531c-8.902344 5.925781-17.179687 7.996093-24.597656 6.140624-7.1875-1.792968-13.410156-7.511718-18.144531-15.761718-7.101563-12.363282 3.1875-32.445313 3.167969-35.21875l91.019531-47.839844c9.523437 39.90625-40.183594 85.179688-51.445313 92.679688zm-77.433594-73.9375c-4.382812-8.4375-5.648437-16.828126-3.199218-23.816407 2.53125-7.21875 8.800781-13 18.640625-17.183593 7.546875-3.207032 67.59375-23.871094 106.609375 8.898437l-91.710938 48.203125c-2.121094-1.238281-23.761718-3.441406-30.339844-16.101562zm-120.019531 64.316406c-4.382812 8.441406-10.957031 13.96875-18.144531 15.761718-7.417969 1.851563-15.695312-.214843-24.597656-6.140624-11.261719-7.5-48.3125-35.605469-52.257813-82.417969-1.070312-12.699219 5.472657-24.832031 16.671875-30.914063 41.285156-22.414062 85.121094-6.894531 97.574219-1.605468 9.839844 4.183593 16.113281 9.964843 18.644531 17.183593 2.449219 6.988281 1.324219 15.453125-3.203125 23.816407-7.988281 14.761718-28.214843 14.863281-30.332031 16.101562l-70.574219-37.09375c-3.667969-1.929688-8.203125-.519531-10.128906 3.148438-1.929687 3.664062-.519531 8.199218 3.148437 10.128906l70.03125 36.808594c-.019531 2.773437 10.070313 21.941406 3.167969 35.222656zm69.855469 180.554687v27.257813h-132.089844v-27.257813zm94.335938 185.980469h-173.671876c-29.089843 0-52.753906-23.667969-52.753906-52.757812v-90.964844h279.179688v90.964844c0 29.089843-23.664063 52.757812-52.753906 52.757812zm69.019531-200.984375h-28.007813c-4.140625 0-7.5 3.359375-7.5 7.5 0 4.144531 3.359375 7.503906 7.5 7.503906h11.742188v27.257813h-132.089844v-27.257813h88.058594c4.140625 0 7.5-3.359375 7.5-7.503906 0-4.140625-3.359375-7.5-7.5-7.5h-251.414063c-16.035156 0-29.082031-13.042969-29.082031-29.078125s13.046875-29.078125 29.082031-29.078125h311.710938c16.035156 0 29.078125 13.042969 29.078125 29.078125s-13.042969 29.078125-29.078125 29.078125zm0 0" style="fill: rgb(246, 246, 246);"/>
  <path d="m220.371094 399.558594h-40.867188c-8.363281 0-15.171875 6.808594-15.171875 15.175781v20.433594c0 19.628906 15.972657 35.601562 35.605469 35.601562s35.605469-15.972656 35.605469-35.601562v-20.433594c0-8.367187-6.808594-15.175781-15.171875-15.175781zm.167968 35.605468c0 11.359376-9.242187 20.605469-20.601562 20.605469s-20.601562-9.242187-20.601562-20.605469c0 0 .074218-20.601562.167968-20.601562 0 0 41.035156.074219 41.035156.167969zm0 0" style="fill: rgb(246, 246, 246);"/>
</svg>