<?xml version="1.0" encoding="utf-8"?>
<svg viewBox="0 0 500 500" xmlns="http://www.w3.org/2000/svg">
  <g transform="matrix(0.937337, 0, 0, 0.933935, 15.039351, 12.128366)" style="">
    <g>
      <path clip-rule="evenodd" d="m255.991 328.27v173.732h56.488l39.787-173.732c0-26.595-21.561-48.132-48.123-48.132-26.591 0-48.152 21.537-48.152 48.132z" fill-rule="evenodd" style="fill: rgb(130, 128, 170);"/>
    </g>
    <g>
      <path clip-rule="evenodd" d="m159.744 328.27 39.759 173.732h56.488v-173.732c0-26.595-21.533-48.132-48.123-48.132-26.563 0-48.124 21.537-48.124 48.132z" fill-rule="evenodd" style="fill: rgb(130, 128, 170);"/>
    </g>
    <g>
      <path clip-rule="evenodd" d="m63.498 328.27 53.747 129.642c9.297 22.384 19.837 44.09 44.083 44.09h38.177l-39.761-173.732c-4.578-43.214-42.754-52.682-70.278-43.61-20.062 6.614-34.474 23.12-25.968 43.61z" fill-rule="evenodd" style="fill: rgb(130, 128, 170);"/>
    </g>
    <g>
      <path clip-rule="evenodd" d="m352.266 328.27-39.787 173.732h38.205c24.245 0 34.786-21.706 44.083-44.09l53.747-129.642c8.28-19.925-5.143-36.092-24.358-43.044-27.609-10.005-67.227-1.018-71.89 43.044z" fill-rule="evenodd" style="fill: rgb(130, 128, 170);"/>
    </g>
    <g>
      <path clip-rule="evenodd" d="m151.832 189.98c45.637-13.142 123.996-25.889 160.59-49.658 15.457-10.062 25.347-22.667 28.032-36.94 3.956-21.084-7.827-45.786-40.607-71.335-37.611-29.309-45.072-22.695-41.398-8.79 1.809 6.755 2.458 15.121 0 22.469-6.867 20.575-20.854 32.446-36.594 41.631-19.329 11.249-41.285 18.484-56.007 32.813-14.044 13.652-21.532 33.718-14.016 69.81z" fill-rule="evenodd" style="fill: rgb(255, 195, 195);"/>
    </g>
    <g>
      <path d="m450.236 290.295c-4.075-4.376-9.12-8.051-14.762-10.961 6.383-42.429-16.188-84.179-56.509-105.355 8.563-13.278 10.975-28.227 6.557-42.484-5.039-16.261-18.061-29.46-34.339-35.458.169-17.006-7.836-42.778-45.188-71.877-26.797-20.882-41.759-26.732-51.649-20.204-3.605 2.381-9.123 8.387-5.557 21.888 1.63 6.085 1.694 12.175.175 16.716-3.975 11.91-10.789 20.472-19.217 27.349-1.318-4.234-3.212-8.308-5.675-12.133-7.146-11.089-18.186-18.729-31.086-21.514-9.125-1.97-18.4-1.33-26.975 1.737-3.101-9.053-1.22-15.308 3.287-22.885 2.824-4.747 1.266-10.883-3.481-13.707-4.746-2.825-10.882-1.265-13.706 3.481-8.829 14.84-9.974 28.296-3.425 43.726-16.972 16.007-20.697 42.386-7.604 62.673 2.696 4.183 5.999 7.885 9.759 11.042-9.693 13.69-14.711 32.572-10.431 60.671-2.523.811-4.917 1.626-7.162 2.45-21.02 7.695-37.389 20.348-47.339 36.591-10.105 16.496-12.939 35.968-8.356 56.764-6.064 2.989-11.475 6.853-15.799 11.498-10.921 11.732-13.651 26.968-7.495 41.795l53.749 129.647c8.312 20.012 20.872 50.255 53.317 50.255h37.958c.139.002.278.002.419 0h112.573c.071.001.141.002.211.002s.141 0 .21-.002h37.986c32.445 0 45.006-30.243 53.319-50.261l53.749-129.639c6.152-14.836 3.412-30.073-7.514-41.805zm-182.303-241.396c3.226-9.641 2.161-19.385.825-25.547 4.557 2.164 12.354 6.772 24.944 16.583 25.256 19.676 38.208 39.372 37.455 56.958-.704 16.433-13.54 28.127-24.185 35.043-24.882 16.168-71.706 27.298-113.019 37.117-11.974 2.846-23.605 5.611-34.156 8.383-3.34-24.59 1.902-39.006 12.292-49.469 1.613-1.289 3.011-2.856 4.63-4.161 1.557-1.256 3.173-2.438 4.827-3.562 3.647-2.479 7.477-4.678 11.364-6.755 8.56-4.573 17.406-8.583 25.997-13.096 13.482-7.082 26.469-15.573 36.09-27.574 5.714-7.125 10.046-15.263 12.936-23.92zm-79.165 6.913c7.675 1.657 14.243 6.202 18.491 12.794 2.546 3.955 4.073 8.352 4.538 12.924-4.594 2.474-9.365 4.817-14.193 7.189-11.183 5.492-22.875 11.235-32.856 19.158-2.68-2.046-5.004-4.551-6.859-7.429-8.782-13.608-4.857-31.826 8.743-40.607 6.6-4.255 14.463-5.685 22.136-4.029zm-48.639 148.418c14.149-5.189 35.668-10.303 58.45-15.718 42.892-10.195 91.506-21.75 119.291-39.805 14.217-9.239 24.08-20.339 29.209-32.7 9.146 4.282 16.475 12.169 19.337 21.408 3.513 11.334-.081 22.852-10.388 33.302-.011.011-.023.022-.034.034-.01.01-.019.018-.029.028-20.922 21.152-59.432 38.669-90.383 52.747-4.623 2.103-6.971 7.533-5.321 12.339 1.891 5.506 8.29 8.282 13.602 5.866 30.276-13.771 67.448-30.684 91.39-52.202 30.19 14.182 54.996 45.494 50.922 83.296-11.431-2.109-23.555-1.577-34.422 2.049-12.355 4.123-22.14 11.53-28.932 21.665-10.387-15.884-28.329-26.401-48.681-26.401-20.003 0-37.681 10.15-48.149 25.567-10.463-15.417-28.132-25.567-48.126-25.567-20.352 0-38.295 10.518-48.682 26.401-6.794-10.136-16.582-17.545-28.943-21.667-10.592-3.533-22.377-4.125-33.55-2.201-8.941-45.285 30.47-63.693 43.439-68.441zm21.197 287.772c-16.142 0-24.399-12.772-34.845-37.92l-53.748-129.646c-3.157-7.604-1.925-14.503 3.662-20.505 3.939-4.232 15.778-13.262 32.586-12.407 5.11.26 10.216.748 14.935 2.322 10.438 3.481 23.389 12.438 25.87 35.341.023.249 37.171 162.816 37.171 162.816h-25.631zm143.184 0h-38.519v-32.112c0-5.523-4.478-10-10-10s-10 4.477-10 10v32.112h-38.519l-37.714-164.797c.566-20.535 17.444-37.066 38.108-37.066 21.021 0 38.124 17.106 38.124 38.132v42.083c0 5.523 4.478 10 10 10s10-4.477 10-10v-42.084c0-21.026 17.114-38.132 38.151-38.132 20.664 0 37.542 16.531 38.108 37.066zm134.766-167.562-53.745 129.636c-10.447 25.154-18.705 37.926-34.847 37.926h-25.656s37.174-162.562 37.197-162.818c2.482-22.898 15.427-31.856 25.86-35.338 10.085-3.363 21.671-3.719 33.342.987 5.591 2.113 10.537 5.188 14.174 9.093 5.593 6.005 6.829 12.907 3.675 20.514z" style="fill: rgb(246, 246, 246);"/>
      <path d="m255.991 405.122c-5.522 0-10 4.477-10 10v.056c0 5.523 4.478 9.972 10 9.972s10-4.505 10-10.028-4.477-10-10-10z" style="fill: rgb(246, 246, 246);"/>
    </g>
  </g>
</svg>